<svg xmlns="http://www.w3.org/2000/svg" version="1.1" xmlns:xlink="http://www.w3.org/1999/xlink" width="512" height="512" x="0" y="0" viewBox="0 0 64 64" style="enable-background:new 0 0 512 512" xml:space="preserve" class=""><g><path d="m63.3 37.4-3.1-1c-.2-.6-.5-1.2-.8-1.8l1.5-2.9c.2-.4.1-.8-.2-1.1l-2.9-2.9c-.3-.3-.8-.4-1.1-.2l-1 .5.1-1.6c.1-1-.3-2-1-2.8l1.8-.2c2-.2 3.6-2 3.4-4.2-.2-1.8-1.8-3.3-3.7-3.3l-3.4-.1c-1.2 0-2.3.5-3 1.5-.9-2.2-2.1-4.2-3.5-6.5-1.2-1.9-3.3-3.2-5.6-3.2H19.1c-2.3 0-4.4 1.2-5.6 3.2-1.4 2.3-2.5 4.2-3.4 6.4-.8-1-1.8-1.4-2.9-1.4l-3.4.1C1.7 16 0 17.7 0 19.6s1.5 3.5 3.5 3.8l1.7.2c-.7.7-1.1 1.7-1 2.8L5 39.5c.1 1.2.8 2.2 1.8 2.7v2.4c0 1.7 1.4 3 3.1 3h5.7c1.7 0 3-1.4 3-3v-2h13.7c.1.3.3.6.6.7l3.1 1c.2.6.5 1.2.8 1.8L35.2 49c-.2.4-.1.8.2 1.1l2.9 2.9c.3.3.8.4 1.1.2l2.9-1.5c.6.3 1.2.6 1.8.8l1 3.1c.1.4.5.7.9.7h4.1c.4 0 .8-.3.9-.7l1-3.1c.6-.2 1.2-.5 1.8-.8l2.9 1.5c.4.2.8.1 1.1-.2l2.9-2.9c.3-.3.4-.8.2-1.1l-1.5-2.9c.3-.6.6-1.2.8-1.8l3.1-1c.4-.1.7-.5.7-.9v-4.1c0-.4-.3-.8-.7-.9zm-27.4-1-.4.1H24.4c-.5 0-1 .4-1 1s.4 1 1 1h7.7v2.2H8.3c-.7 0-1.4-.6-1.4-1.3L6.5 32c.5.1 6.3 3.5 10-1.6l.6.6c1.4 1.7 3.3 2.7 5.4 2.7h13.8l.4.8c-.3.6-.6 1.3-.8 1.9zM6.1 26.2v-.4c4.1.2 7 1.7 8.9 3.3-2.8 4.3-7.8.9-8.8.8zm29.2 4.3c-.3.3-.4.8-.2 1.1l.1.2H22.4c-1.5 0-2.9-.7-3.9-1.9-2.5-3.2-6.1-5.3-10.6-5.9.7-.5 1.3-1.2 1.9-1.9h40.6c.7.9 1.6 1.7 2.6 2.4.1.1 1.1.5 1 1.7l-.2 2.7c-.6-.3-1.1-.5-1.7-.7l-1-3.1c-.1-.4-.5-.7-.9-.7H46c-.4 0-.8.3-.9.7l-1 3.1c-.6.2-1.2.5-1.8.8l-2.9-1.5c-.4-.2-.8-.1-1.1.2zm17.6-12.7 3.4.1c1 0 1.7.7 1.8 1.6.1 1-.7 1.9-1.7 2l-3.7.4c-.5-.5-1-1.1-1.4-1.7l-.1-.7c-.1-1 .9-1.8 1.7-1.7zm-37.7-5.9c.8-1.4 2.3-2.2 3.9-2.2h21.7c1.6 0 3.1.9 3.9 2.2 1.6 2.6 2.7 4.6 3.7 7 .2.4.4.9.6 1.3H10.9c.2-.4.4-.8.6-1.3 1-2.4 2.1-4.4 3.7-7zM2 19.6c0-.9.8-1.8 1.9-1.8l3.4-.1c1 0 1.8.8 1.7 1.7l-.2.6c-.4.7-.9 1.4-1.5 1.9l-3.6-.4c-1-.1-1.7-.9-1.7-1.9zm14.5 25c0 .6-.5 1.1-1.1 1.1H9.8c-.6 0-1.1-.5-1.1-1.1v-2h7.9v2zM62 41.7l-2.9.9c-.3.1-.6.4-.6.7-.2.8-.6 1.6-1 2.4-.2.3-.2.6 0 .9l1.4 2.7-1.9 1.9-2.7-1.4c-.3-.2-.6-.1-.9 0-.8.4-1.6.8-2.4 1-.3.1-.6.3-.7.6l-.9 2.9h-2.7l-.9-2.9c-.1-.3-.4-.6-.7-.6-.8-.2-1.6-.6-2.4-1-.3-.2-.6-.2-.9 0l-2.7 1.4-1.9-1.9 1.4-2.7c.2-.3.1-.6 0-.9-.4-.8-.8-1.6-1-2.4-.1-.3-.3-.6-.6-.7l-2.9-.9V39l2.9-.9c.3-.1.6-.4.6-.7.2-.8.6-1.6 1-2.4.2-.3.2-.6 0-.9l-1.4-2.7 1.9-1.9 2.7 1.4c.3.2.6.1.9 0 .8-.4 1.6-.8 2.4-1 .3-.1.6-.3.7-.6l.9-2.9h2.7l.9 2.9c.1.3.4.6.7.6.8.2 1.6.6 2.4 1 .3.2.6.2.9 0l2.7-1.4 1.9 1.9-1.4 2.7c-.2.3-.1.6 0 .9.4.8.8 1.6 1 2.4.1.3.3.6.6.7l2.9.9z" fill="#ee1d26" opacity="1" data-original="#000000" class=""></path><path d="M47.3 33.9c-3.5 0-6.4 2.9-6.4 6.4s2.9 6.4 6.4 6.4 6.4-2.9 6.4-6.4-2.8-6.4-6.4-6.4zm0 10.9c-2.5 0-4.5-2-4.5-4.5s2-4.5 4.5-4.5 4.5 2 4.5 4.5-2 4.5-4.5 4.5z" fill="#ee1d26" opacity="1" data-original="#000000" class=""></path></g></svg>