<svg xmlns="http://www.w3.org/2000/svg" version="1.1" xmlns:xlink="http://www.w3.org/1999/xlink" width="512" height="512" x="0" y="0" viewBox="0 0 500 500" style="enable-background:new 0 0 512 512" xml:space="preserve" class=""><g transform="matrix(1.1299999999999994,0,0,1.1299999999999994,-32.50000297546387,-32.500130176544076)"><path d="m463.445 176.492-123.871-68.86C333.359 63.76 295.562 29.906 250 29.906s-83.359 33.854-89.574 77.728l-22.638 12.584a7 7 0 1 0 6.802 12.236l15.017-8.348a89.85 89.85 0 0 0 7.525 32.569L46.957 223.478v-36.751l31.816-17.687a7 7 0 0 0 2.716-9.52 6.999 6.999 0 0 0-9.52-2.716l-35.414 19.688a7 7 0 0 0-3.598 6.118v52.768a7 7 0 0 0 10.4 6.119l12.607-7.008v228.607a7 7 0 0 0 7 7h48.082a7 7 0 0 0 7-7v-190.05h263.908v190.05a7 7 0 0 0 7 7h48.082a7 7 0 0 0 7-7v-63.15a7 7 0 1 0-14 0v56.15h-34.082v-190.05a7 7 0 0 0-7-7H111.046a7 7 0 0 0-7 7v190.05H69.964v-229.39l103.776-57.688c16.09 25.14 44.261 41.839 76.26 41.839 31.999 0 60.17-16.699 76.26-41.84l103.776 57.69v107.237a7 7 0 1 0 14 0v-99.456l12.607 7.008a6.991 6.991 0 0 0 6.95-.085 7 7 0 0 0 3.45-6.033V182.61a6.998 6.998 0 0 0-3.598-6.119zM250 196.857c-42.169 0-76.476-34.308-76.476-76.477S207.831 43.904 250 43.904s76.476 34.307 76.476 76.476-34.307 76.477-76.476 76.477zm203.044 26.62-120.176-66.803a89.85 89.85 0 0 0 7.525-32.569l112.65 62.622z" fill="#ee1d26" opacity="1" data-original="#000000" class=""></path><path d="M105.234 153.326a6.97 6.97 0 0 0 3.395-.882l6.398-3.557a7 7 0 1 0-6.802-12.236l-6.398 3.556a7 7 0 0 0 3.407 13.12zM437.036 356.74a7 7 0 0 0-7 7v7.32a7 7 0 1 0 14 0v-7.32a7 7 0 0 0-7-7zM172.93 301.616a7.007 7.007 0 0 0-6.512-.718c-21.843 8.65-35.956 29.412-35.956 52.893 0 20.84 11.45 39.94 29.526 49.87v59.434a7 7 0 0 0 7 7h40.716a7 7 0 0 0 7-7V403.66c18.077-9.928 29.526-29.03 29.526-49.869 0-23.481-14.113-44.243-35.956-52.893a7.002 7.002 0 0 0-9.577 6.509v49.713h-22.702v-49.713a7.002 7.002 0 0 0-3.065-5.79zm32.766 69.504a7 7 0 0 0 7-7v-44.942c10.9 7.936 17.534 20.636 17.534 34.613 0 16.878-9.965 32.245-25.387 39.15a7 7 0 0 0-4.14 6.39v56.764h-26.715V399.33a6.999 6.999 0 0 0-4.14-6.388c-15.421-6.906-25.386-22.273-25.386-39.15 0-13.978 6.634-26.677 17.533-34.614v44.942a7 7 0 0 0 7 7zM292.297 470.095h40.715a7 7 0 0 0 7-7v-60.23c18.077-9.928 29.526-29.03 29.526-49.868 0-31.366-25.518-56.885-56.884-56.885s-56.884 25.52-56.884 56.885c0 20.837 11.45 39.94 29.527 49.87v60.228a7 7 0 0 0 7 7zM269.77 352.997c0-23.646 19.238-42.885 42.884-42.885s42.884 19.239 42.884 42.885c0 16.877-9.965 32.244-25.387 39.15a7.001 7.001 0 0 0-4.14 6.39v57.558h-26.714v-57.559a7.001 7.001 0 0 0-4.14-6.388c-15.422-6.907-25.387-22.274-25.387-39.15z" fill="#ee1d26" opacity="1" data-original="#000000" class=""></path><path d="M312.654 383.993a6.996 6.996 0 0 0 3.5-.938l20.78-11.998a7 7 0 0 0 3.5-6.063V341a7 7 0 0 0-3.5-6.062l-20.78-11.998a7.002 7.002 0 0 0-7 0l-20.78 11.998a7 7 0 0 0-3.5 6.062v23.996a7 7 0 0 0 3.5 6.062l20.78 11.998a6.998 6.998 0 0 0 3.5.938zm-13.78-38.953 13.78-7.956 13.78 7.956v15.913l-13.78 7.957-13.78-7.957zM250 95.85c-13.525 0-24.53 11.005-24.53 24.53s11.005 24.53 24.53 24.53 24.53-11.004 24.53-24.53S263.525 95.85 250 95.85zm0 35.06c-5.805 0-10.53-4.724-10.53-10.53s4.725-10.53 10.53-10.53 10.53 4.724 10.53 10.53-4.724 10.53-10.53 10.53z" fill="#ee1d26" opacity="1" data-original="#000000" class=""></path><path d="M306.254 104.16h-4.703a53.312 53.312 0 0 0-3.63-8.76l3.326-3.327a7 7 0 0 0 0-9.899l-13.04-13.041a6.997 6.997 0 0 0-9.9-.001l-3.327 3.328a53.23 53.23 0 0 0-8.76-3.63v-4.704a7 7 0 0 0-7-7H240.78a7 7 0 0 0-7 7v4.703a53.343 53.343 0 0 0-8.76 3.631l-3.327-3.328a7 7 0 0 0-9.9.001l-13.04 13.041a6.998 6.998 0 0 0 0 9.9l3.328 3.327a53.27 53.27 0 0 0-3.63 8.758h-4.704a7 7 0 0 0-7 7v18.443a7 7 0 0 0 7 7h4.703a53.332 53.332 0 0 0 3.63 8.758l-3.327 3.328a7.002 7.002 0 0 0 0 9.9l13.04 13.04a7.002 7.002 0 0 0 9.9 0l3.328-3.328a53.335 53.335 0 0 0 8.759 3.63v4.704a7 7 0 0 0 7 7h18.442a7 7 0 0 0 7-7v-4.703a53.306 53.306 0 0 0 8.76-3.631l3.327 3.328a7.001 7.001 0 0 0 9.9 0l13.04-13.04a7.004 7.004 0 0 0 0-9.9l-3.328-3.327a53.359 53.359 0 0 0 3.631-8.76h4.703a7 7 0 0 0 7-7V111.16a7 7 0 0 0-7-7zm-7 18.442h-3.13a7 7 0 0 0-6.866 5.635 39.599 39.599 0 0 1-5.946 14.346 7 7 0 0 0 .87 8.84l2.217 2.215-3.142 3.14-2.216-2.216a7 7 0 0 0-8.838-.87 39.612 39.612 0 0 1-14.347 5.947 7 7 0 0 0-5.635 6.865v3.13h-4.442v-3.13a7 7 0 0 0-5.635-6.865 39.614 39.614 0 0 1-14.347-5.947 7.002 7.002 0 0 0-8.839.87l-2.216 2.217-3.14-3.141 2.215-2.216a7 7 0 0 0 .871-8.839 39.597 39.597 0 0 1-5.946-14.346 7 7 0 0 0-6.865-5.635h-3.131v-4.443h3.13a7 7 0 0 0 6.866-5.635 39.603 39.603 0 0 1 5.947-14.347 7 7 0 0 0-.872-8.839l-2.215-2.215 3.14-3.141 2.217 2.217a7.004 7.004 0 0 0 8.838.87 39.582 39.582 0 0 1 14.346-5.946 7.001 7.001 0 0 0 5.636-6.866v-3.13h4.442v3.13c0 3.34 2.36 6.215 5.635 6.866a39.585 39.585 0 0 1 14.347 5.946 7.002 7.002 0 0 0 8.838-.87l2.216-2.217 3.14 3.141-2.214 2.215a7 7 0 0 0-.872 8.839 39.612 39.612 0 0 1 5.947 14.348 7 7 0 0 0 6.865 5.635h3.13v4.442z" fill="#ee1d26" opacity="1" data-original="#000000" class=""></path></g></svg>